# xmcd
#
# Track frame offsets:
#	150
#	16425
#	28950
#	43350
#	54000
#	68025
#	81150
#	90825
#	102675
#	113100
#	126375
#	141900
#	155775
#	170025
#	182625
#
# Disc length: 2628 seconds
#
# Revision: 1
# Processed by: cddbd v1.5.1PL0 Copyright (c) Steve Scherf et al.
# Submitted via: audiograbber 1.83.01
#
DISCID=d40a420f
DTITLE=Various Artist - Dkg3043
DYEAR=1900
DGENRE=karaoke
TTITLE0=Glen Campbell - Rhinestone Cowboy
TTITLE1=Glen Campbell - Wichita Lineman
TTITLE2=Glen Campbell - Gentle On My Mind
TTITLE3=Glen Campbell - Galveston
TTITLE4=Guy Mitchell - Heartaches By The Number
TTITLE5=Roy Acuff - Wabash Cannonball
TTITLE6=Sara Evans - I've Got A Tiger By The Tail
TTITLE7=Simple Plan - Welcome To My World
TTITLE8=Frankie Laine - Cool Water
TTITLE9=Tom Jones - Detroit City
TTITLE10=Reba Mcentire - San Antonio Rose
TTITLE11=Tamia - Still
TTITLE12=Faith Hill - Cry
TTITLE13=Johnny Preston - Running Bear
TTITLE14=Johnny Cash - Long Black Veil
EXTD=
EXTT0=
EXTT1=
EXTT2=
EXTT3=
EXTT4=
EXTT5=
EXTT6=
EXTT7=
EXTT8=
EXTT9=
EXTT10=
EXTT11=
EXTT12=
EXTT13=
EXTT14=
PLAYORDER=
